HIERARCHY
ROOT root
{
	OFFSET 0.000000 0.000000 0.000000
	CHANNELS 6 Xposition Yposition Zposition Zrotation Yrotation Xrotation
	JOINT lhip
	{
		OFFSET 0.058581 -0.082280 -0.017664
		CHANNELS 3 Zrotation Yrotation Xrotation
		JOINT lknee
		{
			OFFSET 0.043451 -0.386469 0.008037
			CHANNELS 3 Zrotation Yrotation Xrotation
			JOINT lankle
			{
				OFFSET -0.014790 -0.426874 -0.037428
				CHANNELS 3 Zrotation Yrotation Xrotation
				JOINT ltoe
				{
					OFFSET 0.041054 -0.060286 0.122042
					CHANNELS 3 Zrotation Yrotation Xrotation
					End Site
					{
						OFFSET 0.000000 0.000000 0.000000
					}
				}
			}
		}
	}
	JOINT rhip
	{
		OFFSET -0.060310 -0.090513 -0.013543
		CHANNELS 3 Zrotation Yrotation Xrotation
		JOINT rknee
		{
			OFFSET -0.043257 -0.383688 -0.004843
			CHANNELS 3 Zrotation Yrotation Xrotation
			JOINT rankle
			{
				OFFSET 0.019056 -0.420046 -0.034562
				CHANNELS 3 Zrotation Yrotation Xrotation
				JOINT rtoe
				{
					OFFSET -0.034840 -0.062106 0.130323
					CHANNELS 3 Zrotation Yrotation Xrotation
					End Site
					{
						OFFSET 0.000000 0.000000 0.000000
					}
				}
			}
		}
	}
	JOINT lowerback
	{
		OFFSET 0.004439 0.124404 -0.038385
		CHANNELS 3 Zrotation Yrotation Xrotation
		JOINT upperback
		{
			OFFSET 0.004488 0.137956 0.026820
			CHANNELS 3 Zrotation Yrotation Xrotation
			JOINT chest
			{
				OFFSET -0.002265 0.056032 0.002855
				CHANNELS 3 Zrotation Yrotation Xrotation
				JOINT lowerneck
				{
					OFFSET -0.013390 0.211636 -0.033468
					CHANNELS 3 Zrotation Yrotation Xrotation
					JOINT upperneck
					{
						OFFSET 0.010113 0.088937 0.050410
						CHANNELS 3 Zrotation Yrotation Xrotation
						End Site
						{
							OFFSET 0.000000 0.000000 0.000000
						}
					}
				}
				JOINT lclavicle
				{
					OFFSET 0.071702 0.114000 -0.018898
					CHANNELS 3 Zrotation Yrotation Xrotation
					JOINT lshoulder
					{
						OFFSET 0.122921 0.045205 -0.019046
						CHANNELS 3 Zrotation Yrotation Xrotation
						JOINT lelbow
						{
							OFFSET 0.255332 -0.015649 -0.022946
							CHANNELS 3 Zrotation Yrotation Xrotation
							JOINT lwrist
							{
								OFFSET 0.265709 0.012698 -0.007375
								CHANNELS 3 Zrotation Yrotation Xrotation
								End Site
								{
									OFFSET 0.000000 0.000000 0.000000
								}
							}
						}
					}
				}
				JOINT rclavicle
				{
					OFFSET -0.082954 0.112472 -0.023707
					CHANNELS 3 Zrotation Yrotation Xrotation
					JOINT rshoulder
					{
						OFFSET -0.113228 0.046853 -0.008472
						CHANNELS 3 Zrotation Yrotation Xrotation
						JOINT relbow
						{
							OFFSET -0.260127 -0.014369 -0.031269
							CHANNELS 3 Zrotation Yrotation Xrotation
							JOINT rwrist
							{
								OFFSET -0.269108 0.006794 -0.006027
								CHANNELS 3 Zrotation Yrotation Xrotation
								End Site
								{
									OFFSET 0.000000 0.000000 0.000000
								}
							}
						}
					}
				}
			}
		}
	}
}
MOTION
Frames: 13
Frame Time: 0.033333
0.907463 0.126745 0.982846 -95.315239 -1.200601 84.409297 -1.573997 -2.839197 -13.990701 -2.774142 -3.757980 5.889412 -1.649702 6.194048 -5.223796 0.000000 -0.000000 0.000000 -0.009930 -4.110938 16.064235 2.423810 5.731042 12.735998 3.639975 -0.693846 -18.243875 0.000000 -0.000000 0.000000 2.098325 5.444099 16.961133 2.266207 -1.917401 0.020735 0.394426 0.739210 3.925804 3.500932 -1.332505 9.728177 -2.543760 -6.591684 19.208468 -27.464615 6.685004 1.229175 -56.851251 -4.403233 9.031569 9.522636 -28.091768 3.930662 -5.164697 -4.068850 -5.683134 26.796965 1.426263 0.920434 53.527882 9.471876 11.971054 -14.889866 23.486987 -9.390498 4.829838 4.217732 -6.124548 
0.885586 0.124552 0.981483 -95.226656 -1.398101 84.835888 -2.067895 -3.310853 -13.754430 -2.575844 -3.397216 6.106702 -1.450576 6.491443 -3.203638 0.000000 -0.000000 0.000000 -0.167356 -3.778200 15.975455 2.026591 5.717587 14.458896 4.090140 -0.741600 -17.699659 0.000000 -0.000000 0.000000 1.383795 5.692561 16.844279 2.278438 -1.787344 -0.143067 0.449274 0.814059 3.886849 3.595561 -1.055567 9.315553 -2.473525 -6.530082 19.393970 -27.451284 6.871145 0.902472 -56.963148 -4.543034 9.226376 9.465257 -27.827411 3.686565 -5.198934 -4.449051 -6.324970 27.233871 1.105278 0.941611 54.029342 9.371964 12.300950 -15.068414 22.758208 -9.745808 4.606964 4.189872 -6.234354 
0.861479 0.121357 0.983040 -94.436388 -1.426180 85.187295 -2.464428 -3.671398 -13.376422 -2.760092 -4.282188 6.857283 -1.920348 6.405597 -1.888734 0.000000 -0.000000 0.000000 -0.252952 -4.024695 15.792152 1.746182 5.653851 16.605772 4.741342 -0.570531 -16.127240 0.000000 -0.000000 0.000000 1.187628 5.861773 16.517951 2.245338 -1.865913 -0.230861 0.309906 0.672147 3.684327 3.477582 -1.351647 9.715252 -2.201503 -6.311674 18.956326 -27.412517 6.989109 0.814129 -57.229826 -4.586101 9.297797 9.844591 -27.702380 3.503902 -5.085770 -4.071201 -6.383628 27.490898 0.490997 0.944264 54.677877 8.820738 12.319595 -14.930824 21.912248 -9.634835 4.836344 4.099611 -6.353959 
0.836694 0.117934 0.985956 -93.485871 -1.496498 85.341371 -3.012496 -3.949413 -12.554646 -2.940558 -4.980701 7.879241 -1.246097 6.009330 -2.271357 0.000000 -0.000000 0.000000 -0.240033 -3.688739 14.927207 1.694596 4.984314 20.336116 5.727075 -0.486304 -13.438238 0.000000 -0.000000 0.000000 0.869894 5.633789 16.196244 2.195710 -1.831045 -0.127383 0.134203 0.655339 3.412608 3.404028 -1.845927 10.120692 -1.969513 -6.132653 18.609684 -27.053892 6.976020 1.115554 -57.573228 -4.643103 9.241639 10.097717 -27.896004 3.505487 -5.822238 -3.895708 -6.804619 27.400407 0.189696 1.244908 55.739581 7.995389 12.352479 -15.161911 21.403206 -9.935444 5.328713 3.823016 -6.663120 
0.810813 0.115078 0.989750 -92.630445 -1.558888 85.119527 -3.593228 -3.553156 -10.118590 -3.159533 -6.626552 6.691776 -0.328410 5.925012 -2.943085 0.000000 -0.000000 0.000000 -0.542692 -3.607551 13.063201 1.974847 3.908494 26.293407 7.306518 -0.152607 -8.869981 0.000000 -0.000000 0.000000 0.208663 5.223095 16.099242 2.251808 -1.524038 0.003099 0.125572 0.669236 3.381694 3.508653 -2.375427 10.496831 -1.820471 -6.063551 18.616042 -26.919839 6.962803 1.379416 -57.542381 -4.632431 9.353632 10.258460 -28.517421 3.477783 -6.081987 -4.236565 -6.950765 27.354202 0.168330 1.596784 56.291014 7.330571 12.434384 -14.902882 20.709657 -10.071831 5.672518 3.956678 -6.713306 
0.784302 0.112434 0.993562 -91.500320 -1.286803 84.703090 -3.875442 -3.677835 -7.516252 -3.268272 -7.770721 5.910158 0.929149 5.877205 -4.017027 0.000000 -0.000000 0.000000 -0.859973 -3.890790 10.198199 2.380589 1.784252 33.663303 9.060071 -0.182923 -1.355392 0.000000 -0.000000 0.000000 -0.162801 4.431819 16.027102 2.378005 -1.266978 0.124765 0.118896 0.670911 3.260708 3.415402 -3.148108 10.982693 -1.543144 -5.634272 18.408123 -26.800239 7.175581 1.557228 -57.507411 -4.673306 9.342975 10.170185 -29.157972 3.887656 -6.617644 -4.251687 -6.790572 27.395636 -0.171606 1.679006 56.493986 6.771330 12.695356 -14.477862 20.078425 -9.482391 6.223659 4.242621 -5.706833 
0.759519 0.110053 0.996128 -90.395983 -1.112041 84.280889 -4.119886 -3.734075 -4.961983 -3.495607 -9.222405 4.973500 2.599521 6.301610 -4.728255 0.000000 -0.000000 0.000000 -1.256776 -3.283124 6.334459 2.656587 -0.596946 41.769016 10.398319 -0.855408 7.557491 0.000000 -0.000000 0.000000 -0.534664 3.332968 16.226773 2.433390 -0.925865 0.184820 -0.008562 0.420840 3.056446 3.129755 -3.608866 11.429391 -1.498075 -4.851461 18.105991 -26.775810 7.379012 1.953637 -57.003130 -4.700871 9.248326 10.388569 -30.331849 4.415700 -7.908094 -4.595614 -6.294533 27.227541 -0.214932 1.917335 56.789917 6.567643 13.123657 -14.051342 19.938287 -9.249966 7.013931 4.012900 -5.331030 
0.736435 0.108560 0.996498 -89.701664 -1.018042 83.981263 -4.207792 -3.712625 -2.912926 -3.815765 -10.496630 4.449071 4.300207 6.741956 -5.371093 0.000000 -0.000000 0.000000 -1.842798 -2.995682 1.554005 2.974141 -1.769642 49.975765 10.017945 -2.841234 14.746522 0.000000 -0.000000 0.000000 -1.176384 2.456114 16.296453 2.616157 -0.571762 0.271000 -0.085561 0.346248 3.281878 3.191605 -3.829108 11.000939 -1.704736 -4.338021 18.010360 -26.372391 7.252978 2.253119 -56.893308 -5.151274 9.300757 10.060345 -30.879425 4.536321 -7.331942 -4.230198 -7.521095 27.521881 -0.292517 1.850877 56.450451 6.658986 13.684767 -13.789297 20.247656 -9.445433 6.952864 3.737797 -5.346045 
0.714628 0.107529 0.997835 -88.969889 -0.878350 83.456054 -4.439522 -3.452817 -0.816388 -3.813355 -11.920378 4.297545 5.781103 7.172272 -5.693672 0.000000 -0.000000 0.000000 -2.150823 -2.472278 -3.203408 2.438091 -3.076689 57.247385 9.397222 -5.453667 19.983274 0.000000 -0.000000 0.000000 -1.688926 1.337375 16.904922 2.780506 -0.115865 0.254461 -0.113753 0.030687 3.297289 3.166383 -3.775852 10.926755 -2.201364 -3.712163 18.026588 -26.518754 7.242043 2.229542 -56.055110 -5.778818 9.183440 9.750129 -30.922484 5.228770 -8.449047 -4.604811 -7.594011 27.925327 -0.256371 1.645411 56.103611 7.045288 14.167057 -14.044764 20.066281 -10.168832 6.944308 3.725003 -5.111287 
0.692862 0.106921 0.999435 -87.952413 -0.529675 82.873448 -4.647525 -3.092206 1.175294 -3.465867 -13.396059 4.454054 6.896509 7.323839 -5.879721 0.000000 -0.000000 0.000000 -2.216174 -1.982020 -7.621250 1.156711 -5.035168 62.967901 7.503654 -7.819393 16.344327 0.000000 -0.000000 0.000000 -1.787150 0.101943 17.239831 2.830860 0.079871 0.357156 -0.289755 -0.341814 3.467108 3.485751 -3.142175 11.017218 -2.884820 -3.513665 18.204099 -26.577189 6.966032 2.262131 -55.468088 -6.395105 8.894663 10.220053 -30.762233 4.698989 -8.840235 -4.600068 -7.112118 28.306654 0.049797 1.437836 55.980614 7.187172 14.174375 -14.866858 20.331600 -10.880150 6.999747 3.656419 -4.740143 
0.670926 0.106699 1.001473 -87.021537 -0.028851 82.125203 -4.631089 -2.311959 3.158701 -3.154780 -15.241467 5.017299 7.159294 7.563899 -7.063942 0.000000 -0.000000 0.000000 -2.395134 -1.620036 -11.061571 -0.522365 -6.884004 65.824615 5.716227 -8.704096 10.176392 0.000000 -0.000000 0.000000 -1.570388 -1.055060 18.053422 2.804071 0.163922 -0.045201 -0.358923 -0.645124 3.643405 3.694385 -2.478015 11.299891 -3.317189 -3.362524 18.450318 -26.248803 6.591208 2.470935 -55.713670 -6.790978 8.533678 10.977492 -30.689437 3.538910 -7.857274 -3.931981 -7.998818 28.257254 0.369434 1.462407 56.119739 7.287380 13.820038 -15.560253 20.811309 -11.355847 6.851572 3.633924 -4.805469 
0.648327 0.107101 1.002563 -86.337492 0.543807 81.347563 -4.396440 -1.734717 5.318579 -2.767505 -16.652649 5.482877 7.291872 8.051968 -8.231933 0.000000 -0.000000 0.000000 -2.350034 -1.005956 -14.032259 -1.836077 -8.244350 66.033519 4.736123 -10.342243 6.033828 0.000000 -0.000000 0.000000 -1.121071 -1.968612 18.687720 2.721692 0.471596 -0.124702 -0.412176 -1.107123 3.836586 3.697752 -2.111172 11.261597 -3.566908 -3.302876 18.730701 -26.195445 6.448929 2.658806 -55.539390 -7.274612 8.189945 10.960350 -31.132090 2.623815 -7.047651 -3.828706 -9.061623 28.084105 0.449105 1.326161 56.039944 7.274521 13.695008 -15.907231 22.242708 -12.064377 6.405427 3.446243 -5.536552 
0.626486 0.107565 1.002591 -85.722751 1.019810 80.873506 -4.031120 -1.144064 6.945531 -2.622815 -17.878017 6.207458 7.208549 8.189659 -9.730170 0.000000 -0.000000 0.000000 -2.558860 -0.234434 -16.554650 -2.676116 -9.669795 63.503418 5.460817 -10.781072 1.572632 0.000000 -0.000000 0.000000 -0.769301 -2.885492 19.058777 2.654156 0.509850 -0.166399 -0.403140 -1.223642 4.036885 3.946307 -1.481253 10.957354 -3.862718 -3.423101 19.003974 -26.183661 6.338256 2.566455 -55.331091 -7.632343 8.039573 11.625218 -31.469335 1.696823 -5.824628 -3.586210 -8.027157 27.969391 0.511405 1.214158 55.750682 7.279283 13.499670 -16.068299 23.724653 -12.660317 5.950044 3.732169 -5.855339 
